<svg width="37" height="38" viewBox="0 0 37 38" fill="none" xmlns="http://www.w3.org/2000/svg">
<ellipse cx="26.3671" cy="10.5189" rx="2.16776" ry="6.18762" fill="#3873E9"/>
<ellipse cx="26.3672" cy="10.5189" rx="2.16567" ry="6.19361" transform="rotate(-90 26.3672 10.5189)" fill="#3873E9"/>
<ellipse cx="32.5608" cy="3.71257" rx="1.30066" ry="3.71257" fill="#3873E9"/>
<ellipse cx="32.5608" cy="3.71244" rx="1.2994" ry="3.71617" transform="rotate(-90 32.5608 3.71244)" fill="#3873E9"/>
<mask id="path-5-inside-1_88_198" fill="white">
<path fill-rule="evenodd" clip-rule="evenodd" d="M9.61718 2.82701C8.05433 1.26567 5.52044 1.26567 3.95759 2.82701L1.87412 4.90846C1.73807 5.04438 1.61386 5.18765 1.5015 5.33699C1.36887 5.4321 1.24455 5.53733 1.12892 5.65285C-1.99612 8.77486 2.4039 18.2324 10.9566 26.7769C19.5094 35.3214 28.9761 39.7171 32.1012 36.5951C32.2167 36.4797 32.3219 36.3556 32.417 36.2233C32.5667 36.1109 32.7102 35.9868 32.8463 35.8507L34.9298 33.7693C36.4927 32.208 36.4927 29.6765 34.9298 28.1152L29.8682 23.0585C28.3054 21.4972 25.7715 21.4972 24.2086 23.0585L22.1252 25.14C21.5454 25.7192 21.1807 26.432 21.0311 27.1792C19.3159 26.2848 17.1954 24.6789 15.126 22.6114C13.0567 20.5441 11.4492 18.4258 10.5539 16.7123C11.3019 16.5629 12.0154 16.1985 12.5953 15.6192L14.6787 13.5378C16.2416 11.9765 16.2416 9.44502 14.6787 7.88368L9.61718 2.82701Z"/>
</mask>
<path d="M3.95759 2.82701L2.82676 1.69509L3.95759 2.82701ZM9.61718 2.82701L10.748 1.69509V1.69509L9.61718 2.82701ZM1.87412 4.90846L0.743297 3.77654L0.743297 3.77654L1.87412 4.90846ZM1.5015 5.33699L2.43388 6.63725L2.63284 6.49458L2.78003 6.29895L1.5015 5.33699ZM1.12892 5.65285L2.25974 6.78476L1.12892 5.65285ZM10.9566 26.7769L12.0875 25.645L10.9566 26.7769ZM32.1012 36.5951L30.9703 35.4632L30.9703 35.4632L32.1012 36.5951ZM32.417 36.2233L31.4564 34.9437L31.2606 35.0907L31.1178 35.2895L32.417 36.2233ZM32.8463 35.8507L31.7155 34.7188L31.7155 34.7188L32.8463 35.8507ZM34.9298 33.7693L36.0606 34.9012L34.9298 33.7693ZM34.9298 28.1152L33.799 29.2471V29.2471L34.9298 28.1152ZM29.8682 23.0585L28.7374 24.1904L29.8682 23.0585ZM24.2086 23.0585L23.0778 21.9266L24.2086 23.0585ZM22.1252 25.14L23.256 26.2719L23.256 26.2719L22.1252 25.14ZM21.0311 27.1792L20.2913 28.5979L22.1814 29.5835L22.5999 27.4933L21.0311 27.1792ZM15.126 22.6114L16.2568 21.4795L15.126 22.6114ZM10.5539 16.7123L10.2405 15.1433L8.1474 15.5615L9.13585 17.4533L10.5539 16.7123ZM12.5953 15.6192L11.4645 14.4873V14.4873L12.5953 15.6192ZM14.6787 13.5378L13.5479 12.4059H13.5479L14.6787 13.5378ZM14.6787 7.88368L15.8096 6.75176L14.6787 7.88368ZM5.08841 3.95893C6.02655 3.0217 7.54822 3.0217 8.48636 3.95893L10.748 1.69509C8.56043 -0.490356 5.01433 -0.490356 2.82676 1.69509L5.08841 3.95893ZM3.00494 6.04038L5.08841 3.95893L2.82676 1.69509L0.743297 3.77654L3.00494 6.04038ZM2.78003 6.29895C2.84734 6.20948 2.92221 6.12303 3.00494 6.04038L0.743297 3.77654C0.553926 3.96573 0.380384 4.16581 0.222967 4.37504L2.78003 6.29895ZM2.25974 6.78476C2.31315 6.73141 2.37098 6.68235 2.43388 6.63725L0.569122 4.03673C0.366759 4.18184 0.175957 4.34324 -0.0019035 4.52093L2.25974 6.78476ZM12.0875 25.645C7.90809 21.4696 4.79499 17.1191 3.1143 13.5065C2.27104 11.694 1.82659 10.1486 1.73914 8.95235C1.65125 7.75018 1.93047 7.11372 2.25974 6.78476L-0.00190347 4.52093C-1.23515 5.75298 -1.57782 7.46947 -1.45235 9.18568C-1.32644 10.9078 -0.722283 12.8462 0.212927 14.8564C2.08918 18.8892 5.45246 23.5397 9.82583 27.9088L12.0875 25.645ZM30.9703 35.4632C30.6407 35.7925 30.0025 36.0718 28.7981 35.9839C27.6 35.8965 26.0526 35.4522 24.2381 34.6097C20.6217 32.9305 16.2668 29.8203 12.0875 25.645L9.82583 27.9088C14.1992 32.278 18.854 35.6378 22.8904 37.5121C24.9024 38.4463 26.8422 39.0497 28.5652 39.1754C30.282 39.3007 31.9991 38.9587 33.232 37.727L30.9703 35.4632ZM31.1178 35.2895C31.0727 35.3522 31.0237 35.4099 30.9703 35.4632L33.232 37.727C33.4097 37.5495 33.5711 37.3591 33.7163 37.157L31.1178 35.2895ZM31.7155 34.7188C31.6327 34.8015 31.5461 34.8764 31.4564 34.9437L33.3776 37.5028C33.5872 37.3455 33.7876 37.172 33.9772 36.9827L31.7155 34.7188ZM33.799 32.6374L31.7155 34.7188L33.9772 36.9827L36.0606 34.9012L33.799 32.6374ZM33.799 29.2471C34.7363 30.1835 34.7363 31.701 33.799 32.6374L36.0606 34.9012C38.2491 32.7149 38.2491 29.1696 36.0606 26.9833L33.799 29.2471ZM28.7374 24.1904L33.799 29.2471L36.0606 26.9833L30.9991 21.9266L28.7374 24.1904ZM25.3395 24.1904C26.2776 23.2532 27.7993 23.2532 28.7374 24.1904L30.9991 21.9266C28.8115 19.7411 25.2654 19.7411 23.0778 21.9266L25.3395 24.1904ZM23.256 26.2719L25.3395 24.1904L23.0778 21.9266L20.9944 24.008L23.256 26.2719ZM22.5999 27.4933C22.6894 27.0465 22.9065 26.621 23.256 26.2719L20.9944 24.008C20.1842 24.8174 19.6719 25.8175 19.4622 26.8651L22.5999 27.4933ZM13.9952 23.7434C16.142 25.8881 18.3914 27.6072 20.2913 28.5979L21.7709 25.7605C20.2404 24.9624 18.2488 23.4696 16.2568 21.4795L13.9952 23.7434ZM9.13585 17.4533C10.1277 19.3515 11.8485 21.5987 13.9952 23.7434L16.2568 21.4795C14.2649 19.4895 12.7708 17.5 11.972 15.9714L9.13585 17.4533ZM11.4645 14.4873C11.1149 14.8365 10.6886 15.0538 10.2405 15.1433L10.8674 18.2813C11.9152 18.072 12.916 17.5605 13.7261 16.7512L11.4645 14.4873ZM13.5479 12.4059L11.4645 14.4873L13.7261 16.7512L15.8096 14.6697L13.5479 12.4059ZM13.5479 9.01559C14.4852 9.95197 14.4852 11.4695 13.5479 12.4059L15.8096 14.6697C17.998 12.4834 17.998 8.93806 15.8096 6.75176L13.5479 9.01559ZM8.48636 3.95893L13.5479 9.01559L15.8096 6.75176L10.748 1.69509L8.48636 3.95893Z" fill="#3873E9" mask="url(#path-5-inside-1_88_198)"/>
</svg>
