<svg width="44" height="44" viewBox="0 0 44 44" fill="none" xmlns="http://www.w3.org/2000/svg">
<path fill-rule="evenodd" clip-rule="evenodd" d="M2.4911 2.49109C4.47922 0.502969 7.70261 0.502969 9.69073 2.49109L22 14.8004L34.3093 2.49109C36.2974 0.502971 39.5208 0.50297 41.5089 2.49109C43.497 4.47922 43.497 7.7026 41.5089 9.69073L29.1996 22L41.5089 34.3093C43.497 36.2974 43.497 39.5208 41.5089 41.5089C39.5208 43.497 36.2974 43.497 34.3093 41.5089L22 29.1996L9.69073 41.5089C7.7026 43.497 4.47922 43.497 2.49109 41.5089C0.502969 39.5208 0.502969 36.2974 2.49109 34.3093L14.8004 22L2.49109 9.69072C0.502971 7.7026 0.502972 4.47922 2.4911 2.49109Z" fill="white" stroke="#3873E9" stroke-width="2" stroke-linecap="round"/>
</svg>
