<svg width="473" height="112" viewBox="0 0 473 112" fill="none" xmlns="http://www.w3.org/2000/svg">
<circle cx="61.5" cy="60.5" r="45.5" fill="#3873E9"/>
<path d="M63.4418 46.9091V76H59.919V50.6023H59.7486L52.6463 55.3182V51.7386L59.919 46.9091H63.4418Z" fill="white"/>
<circle cx="427.5" cy="60.5" r="44" stroke="#3873E9" stroke-width="3"/>
<path d="M428.107 76.3977C426.232 76.3977 424.56 76.0758 423.092 75.4318C421.634 74.7879 420.474 73.893 419.612 72.7472C418.76 71.5919 418.296 70.2519 418.22 68.7273H421.8C421.875 69.6648 422.197 70.4744 422.766 71.1562C423.334 71.8286 424.077 72.3494 424.996 72.7188C425.914 73.0881 426.932 73.2727 428.05 73.2727C429.3 73.2727 430.408 73.0549 431.374 72.6193C432.339 72.1837 433.097 71.5777 433.646 70.8011C434.196 70.0246 434.47 69.125 434.47 68.1023C434.47 67.0322 434.205 66.09 433.675 65.2756C433.144 64.4517 432.368 63.8078 431.345 63.3438C430.322 62.8797 429.072 62.6477 427.595 62.6477H425.266V59.5227H427.595C428.75 59.5227 429.764 59.3144 430.635 58.8977C431.516 58.4811 432.202 57.8939 432.695 57.1364C433.196 56.3788 433.447 55.4886 433.447 54.4659C433.447 53.4811 433.23 52.6241 432.794 51.8949C432.358 51.1657 431.743 50.5975 430.947 50.1903C430.161 49.7831 429.233 49.5795 428.163 49.5795C427.16 49.5795 426.213 49.7642 425.322 50.1335C424.442 50.4934 423.722 51.0189 423.163 51.7102C422.605 52.392 422.302 53.2159 422.254 54.1818H418.845C418.902 52.6572 419.361 51.322 420.223 50.1761C421.085 49.0208 422.212 48.1212 423.604 47.4773C425.005 46.8333 426.544 46.5114 428.22 46.5114C430.019 46.5114 431.563 46.8759 432.851 47.6051C434.139 48.3248 435.128 49.2765 435.82 50.4602C436.511 51.6439 436.857 52.9223 436.857 54.2955C436.857 55.9337 436.426 57.3305 435.564 58.4858C434.712 59.6411 433.552 60.4413 432.084 60.8864V61.1136C433.921 61.4167 435.356 62.1979 436.388 63.4574C437.42 64.7074 437.936 66.2557 437.936 68.1023C437.936 69.6837 437.505 71.1042 436.643 72.3636C435.791 73.6136 434.626 74.5985 433.149 75.3182C431.672 76.0379 429.991 76.3977 428.107 76.3977Z" fill="#3873E9"/>
<circle cx="244.5" cy="60.5" r="44" stroke="#3873E9" stroke-width="3"/>
<path d="M235.402 76V73.4432L245.004 62.9318C246.131 61.7008 247.059 60.6307 247.788 59.7216C248.518 58.803 249.057 57.9413 249.408 57.1364C249.768 56.322 249.947 55.4697 249.947 54.5795C249.947 53.5568 249.701 52.6714 249.209 51.9233C248.726 51.1752 248.063 50.5975 247.22 50.1903C246.377 49.7831 245.43 49.5795 244.379 49.5795C243.262 49.5795 242.286 49.8116 241.453 50.2756C240.629 50.7301 239.99 51.3693 239.536 52.1932C239.09 53.017 238.868 53.983 238.868 55.0909H235.516C235.516 53.3864 235.909 51.8902 236.695 50.6023C237.481 49.3144 238.551 48.3106 239.905 47.5909C241.268 46.8712 242.798 46.5114 244.493 46.5114C246.197 46.5114 247.708 46.8712 249.024 47.5909C250.34 48.3106 251.373 49.2812 252.121 50.5028C252.869 51.7244 253.243 53.0833 253.243 54.5795C253.243 55.6496 253.049 56.696 252.661 57.7188C252.282 58.732 251.619 59.8636 250.672 61.1136C249.734 62.3542 248.432 63.8693 246.766 65.6591L240.232 72.6477V72.875H253.754V76H235.402Z" fill="#3873E9"/>
<ellipse cx="109" cy="102" rx="3.5" ry="10" fill="#3873E9"/>
<ellipse cx="109" cy="102" rx="3.5" ry="10" transform="rotate(-90 109 102)" fill="#3873E9"/>
<ellipse cx="5.9999" cy="36" rx="2.1" ry="6" fill="#3873E9"/>
<ellipse cx="6" cy="36.0001" rx="2.1" ry="6" transform="rotate(-90 6 36.0001)" fill="#3873E9"/>
<ellipse cx="17" cy="15" rx="5.25" ry="15" fill="#3873E9"/>
<ellipse cx="17" cy="15" rx="5.25" ry="15" transform="rotate(-90 17 15)" fill="#3873E9"/>
<path d="M107 62H135" stroke="#3873E9" stroke-width="3" stroke-linecap="round"/>
<path d="M141 62H150" stroke="#3873E9" stroke-width="3" stroke-linecap="round"/>
<path d="M155 62H156" stroke="#3873E9" stroke-width="3" stroke-linecap="round"/>
</svg>
