<svg width="1440" height="224" viewBox="0 0 1440 224" fill="none" xmlns="http://www.w3.org/2000/svg">
<mask id="mask0_29_299" style="mask-type:alpha" maskUnits="userSpaceOnUse" x="0" y="0" width="1440" height="224">
<rect width="1440" height="224" fill="#3873E9"/>
</mask>
<g mask="url(#mask0_29_299)">
<rect x="-24" y="-11" width="1487" height="234" fill="white" stroke="#3873E9" stroke-width="2"/>
<path fill-rule="evenodd" clip-rule="evenodd" d="M1142.69 168.625C1155.8 168.625 1167.63 163.178 1176.06 154.425C1180.68 162.885 1189.65 168.625 1199.97 168.625C1207.85 168.625 1214.95 165.276 1219.92 159.923C1221.7 161.303 1223.94 162.125 1226.38 162.125C1229.36 162.125 1232.06 160.884 1233.98 158.89C1234.71 159.393 1235.58 159.688 1236.53 159.688C1239 159.688 1241 157.687 1241 155.219C1241 152.878 1239.2 150.957 1236.91 150.766C1236.52 145.572 1232.38 141.424 1227.18 141.031C1227.04 130.043 1220.38 120.628 1210.89 116.468C1210.92 115.982 1210.94 115.493 1210.94 115C1210.94 102.436 1200.75 92.25 1188.19 92.25C1185.06 92.25 1182.07 92.8822 1179.36 94.0258C1170.89 83.0614 1157.61 76 1142.69 76C1122.76 76 1105.78 88.5809 1099.24 106.232C1098.17 106.12 1097.07 106.062 1095.97 106.062C1081.05 106.062 1068.57 116.509 1065.44 130.487C1065.06 130.454 1064.67 130.438 1064.28 130.438C1056.88 130.438 1050.88 136.44 1050.88 143.844C1050.88 143.98 1050.88 144.115 1050.88 144.25C1050.88 144.25 1050.88 144.25 1050.88 144.25C1048.18 144.25 1046 146.433 1046 149.125C1046 151.817 1048.18 154 1050.88 154C1052.16 154 1053.33 153.501 1054.2 152.686C1056.66 155.484 1060.27 157.25 1064.28 157.25C1066.57 157.25 1068.73 156.676 1070.61 155.665C1076.29 163.517 1085.53 168.625 1095.97 168.625C1103.96 168.625 1111.25 165.631 1116.77 160.703C1124.17 165.704 1133.09 168.625 1142.69 168.625Z" fill="#3873E9"/>
<path fill-rule="evenodd" clip-rule="evenodd" d="M741.625 170.75C747.675 170.75 753.139 168.236 757.027 164.196C759.158 168.101 763.301 170.75 768.062 170.75C771.7 170.75 774.976 169.204 777.27 166.734C778.094 167.371 779.128 167.75 780.25 167.75C781.629 167.75 782.874 167.177 783.761 166.257C784.095 166.489 784.5 166.625 784.938 166.625C786.077 166.625 787 165.702 787 164.562C787 163.482 786.169 162.595 785.111 162.507C784.933 160.11 783.02 158.196 780.624 158.014C780.555 152.943 777.482 148.598 773.104 146.677C773.118 146.453 773.125 146.228 773.125 146C773.125 140.201 768.424 135.5 762.625 135.5C761.18 135.5 759.804 135.792 758.551 136.32C754.642 131.259 748.514 128 741.625 128C732.43 128 724.59 133.807 721.574 141.953C721.077 141.901 720.573 141.875 720.062 141.875C713.176 141.875 707.416 146.696 705.973 153.148C705.796 153.133 705.618 153.125 705.438 153.125C702.02 153.125 699.25 155.895 699.25 159.312C699.25 159.375 699.251 159.438 699.253 159.5C699.252 159.5 699.251 159.5 699.25 159.5C698.007 159.5 697 160.507 697 161.75C697 162.993 698.007 164 699.25 164C699.844 164 700.384 163.77 700.787 163.394C701.921 164.685 703.584 165.5 705.438 165.5C706.494 165.5 707.489 165.235 708.359 164.768C710.982 168.392 715.247 170.75 720.062 170.75C723.75 170.75 727.114 169.368 729.665 167.094C733.078 169.402 737.194 170.75 741.625 170.75Z" fill="#3873E9"/>
<path fill-rule="evenodd" clip-rule="evenodd" d="M209.621 122.225C223.806 122.225 236.614 116.331 245.731 106.859C250.726 116.014 260.439 122.225 271.602 122.225C280.13 122.225 287.811 118.601 293.189 112.809C295.121 114.303 297.544 115.192 300.175 115.192C303.408 115.192 306.328 113.849 308.407 111.691C309.189 112.235 310.14 112.554 311.165 112.554C313.835 112.554 316 110.389 316 107.719C316 105.185 314.052 103.107 311.572 102.9C311.153 97.2802 306.67 92.7925 301.051 92.3664C300.891 80.4776 293.686 70.29 283.42 65.7879C283.454 65.2629 283.471 64.7334 283.471 64.2C283.471 50.6046 272.45 39.5833 258.854 39.5833C255.467 39.5833 252.24 40.2674 249.303 41.5048C240.139 29.6408 225.772 22 209.621 22C188.062 22 169.684 35.6132 162.612 54.7124C161.447 54.5912 160.265 54.5292 159.069 54.5292C142.924 54.5292 129.419 65.8328 126.037 80.9577C125.623 80.9223 125.204 80.9042 124.781 80.9042C116.77 80.9042 110.275 87.3988 110.275 95.4104C110.275 95.5575 110.277 95.704 110.282 95.85C110.279 95.85 110.277 95.85 110.275 95.85C107.362 95.85 105 98.2117 105 101.125C105 104.038 107.362 106.4 110.275 106.4C111.668 106.4 112.935 105.86 113.877 104.978C116.536 108.006 120.436 109.917 124.781 109.917C127.258 109.917 129.591 109.296 131.631 108.201C137.78 116.697 147.779 122.225 159.069 122.225C167.713 122.225 175.6 118.985 181.582 113.653C189.584 119.065 199.233 122.225 209.621 122.225Z" fill="#3873E9"/>
<path fill-rule="evenodd" clip-rule="evenodd" d="M360.7 134.2C365.54 134.2 369.911 132.189 373.022 128.957C374.726 132.081 378.041 134.2 381.85 134.2C384.76 134.2 387.381 132.963 389.216 130.987C389.875 131.497 390.702 131.8 391.6 131.8C392.703 131.8 393.7 131.342 394.409 130.606C394.676 130.791 395 130.9 395.35 130.9C396.261 130.9 397 130.161 397 129.25C397 128.386 396.335 127.676 395.489 127.606C395.346 125.688 393.816 124.157 391.899 124.011C391.844 119.954 389.386 116.478 385.883 114.942C385.894 114.763 385.9 114.582 385.9 114.4C385.9 109.761 382.139 106 377.5 106C376.344 106 375.243 106.233 374.241 106.656C371.114 102.607 366.211 100 360.7 100C353.344 100 347.072 104.645 344.659 111.163C344.262 111.121 343.858 111.1 343.45 111.1C337.941 111.1 333.333 114.957 332.178 120.118C332.037 120.106 331.894 120.1 331.75 120.1C329.016 120.1 326.8 122.316 326.8 125.05C326.8 125.1 326.801 125.15 326.802 125.2C326.801 125.2 326.801 125.2 326.8 125.2C325.806 125.2 325 126.006 325 127C325 127.994 325.806 128.8 326.8 128.8C327.275 128.8 327.708 128.616 328.029 128.315C328.936 129.348 330.267 130 331.75 130C332.595 130 333.391 129.788 334.087 129.415C336.186 132.314 339.597 134.2 343.45 134.2C346.4 134.2 349.091 133.094 351.132 131.275C353.863 133.122 357.155 134.2 360.7 134.2Z" fill="#3873E9"/>
<path fill-rule="evenodd" clip-rule="evenodd" d="M52.75 210.5C56.7836 210.5 60.4258 208.824 63.0182 206.131C64.4387 208.734 67.2006 210.5 70.375 210.5C72.7999 210.5 74.9841 209.469 76.5135 207.822C77.0628 208.247 77.7519 208.5 78.5 208.5C79.4194 208.5 80.2496 208.118 80.8408 207.505C81.0632 207.659 81.3335 207.75 81.625 207.75C82.3844 207.75 83 207.134 83 206.375C83 205.655 82.446 205.064 81.7409 205.005C81.6217 203.407 80.3468 202.131 78.7492 202.009C78.7035 198.629 76.6547 195.732 73.7357 194.452C73.7452 194.302 73.75 194.152 73.75 194C73.75 190.134 70.616 187 66.75 187C65.7869 187 64.8692 187.195 64.034 187.546C61.428 184.173 57.3428 182 52.75 182C46.6197 182 41.3935 185.871 39.3825 191.302C39.0513 191.268 38.7152 191.25 38.375 191.25C33.784 191.25 29.9438 194.464 28.9819 198.765C28.8643 198.755 28.7453 198.75 28.625 198.75C26.3468 198.75 24.5 200.597 24.5 202.875C24.5 202.917 24.5006 202.958 24.5019 203C24.5012 203 24.5006 203 24.5 203C23.6716 203 23 203.672 23 204.5C23 205.328 23.6716 206 24.5 206C24.8961 206 25.2563 205.846 25.5244 205.596C26.2804 206.457 27.3892 207 28.625 207C29.3294 207 29.9926 206.823 30.5727 206.512C32.3213 208.928 35.1646 210.5 38.375 210.5C40.833 210.5 43.0758 209.579 44.7769 208.062C47.0523 209.601 49.7962 210.5 52.75 210.5Z" fill="#3873E9"/>
<path fill-rule="evenodd" clip-rule="evenodd" d="M900.892 249.8C918.774 249.8 934.921 242.37 946.414 230.429C952.711 241.97 964.956 249.8 979.029 249.8C989.78 249.8 999.463 245.231 1006.24 237.929C1008.68 239.813 1011.73 240.933 1015.05 240.933C1019.13 240.933 1022.81 239.241 1025.43 236.52C1026.41 237.206 1027.61 237.608 1028.9 237.608C1032.27 237.608 1035 234.879 1035 231.513C1035 228.319 1032.54 225.699 1029.42 225.438C1028.89 218.353 1023.24 212.695 1016.15 212.158C1015.95 197.171 1006.87 184.328 993.928 178.652C993.97 177.99 993.992 177.322 993.992 176.65C993.992 159.511 980.098 145.617 962.958 145.617C958.688 145.617 954.62 146.479 950.918 148.039C939.364 133.082 921.253 123.45 900.892 123.45C873.714 123.45 850.544 140.612 841.629 164.689C840.161 164.537 838.671 164.458 837.162 164.458C816.809 164.458 799.784 178.708 795.52 197.776C794.998 197.731 794.471 197.708 793.938 197.708C783.838 197.708 775.65 205.896 775.65 215.996C775.65 216.181 775.653 216.366 775.658 216.55C775.655 216.55 775.653 216.55 775.65 216.55C771.977 216.55 769 219.527 769 223.2C769 226.873 771.977 229.85 775.65 229.85C777.406 229.85 779.003 229.169 780.192 228.058C783.543 231.874 788.459 234.283 793.938 234.283C797.06 234.283 800 233.501 802.572 232.121C810.324 242.832 822.93 249.8 837.162 249.8C848.06 249.8 858.003 245.715 865.544 238.993C875.632 245.816 887.797 249.8 900.892 249.8Z" fill="#3873E9"/>
<path fill-rule="evenodd" clip-rule="evenodd" d="M1369.82 77.425C1380.78 77.425 1390.67 72.8721 1397.72 65.5549C1401.57 72.627 1409.08 77.425 1417.7 77.425C1424.29 77.425 1430.22 74.6253 1434.38 70.1508C1435.87 71.3049 1437.74 71.9917 1439.77 71.9917C1442.27 71.9917 1444.53 70.9546 1446.13 69.2875C1446.74 69.7078 1447.47 69.9542 1448.26 69.9542C1450.33 69.9542 1452 68.2818 1452 66.2188C1452 64.2618 1450.5 62.6563 1448.58 62.4964C1448.26 58.1549 1444.79 54.688 1440.45 54.3589C1440.33 45.1747 1434.76 37.3046 1426.83 33.8267C1426.86 33.4211 1426.87 33.0121 1426.87 32.6C1426.87 22.0974 1418.36 13.5833 1407.85 13.5833C1405.24 13.5833 1402.74 14.1118 1400.48 15.0677C1393.4 5.90259 1382.3 0 1369.82 0C1353.17 0 1338.97 10.5164 1333.51 25.2707C1332.61 25.1771 1331.69 25.1292 1330.77 25.1292C1318.3 25.1292 1307.86 33.8614 1305.25 45.5455C1304.93 45.5181 1304.61 45.5042 1304.28 45.5042C1298.09 45.5042 1293.07 50.5214 1293.07 56.7104C1293.07 56.824 1293.08 56.9372 1293.08 57.05C1293.08 57.05 1293.08 57.05 1293.07 57.05C1290.82 57.05 1289 58.8744 1289 61.125C1289 63.3756 1290.82 65.2 1293.07 65.2C1294.15 65.2 1295.13 64.783 1295.86 64.1017C1297.91 66.4405 1300.92 67.9167 1304.28 67.9167C1306.19 67.9167 1308 67.437 1309.57 66.5914C1314.32 73.1549 1322.05 77.425 1330.77 77.425C1337.45 77.425 1343.54 74.9219 1348.16 70.8028C1354.34 74.9835 1361.8 77.425 1369.82 77.425Z" fill="#3873E9"/>
<circle cx="615" cy="48" r="105" fill="#3873E9"/>
<circle cx="591.5" cy="76.5" r="54.5" fill="white"/>
<circle cx="590.5" cy="78.5" r="29.5" fill="#3873E9"/>
<circle cx="596.5" cy="68.5" r="11.5" fill="white"/>
<circle cx="605" cy="88" r="6" fill="white"/>
<ellipse cx="1036" cy="108" rx="3.5" ry="10" fill="#3873E9"/>
<ellipse cx="1036" cy="108" rx="3.5" ry="10" transform="rotate(-90 1036 108)" fill="#3873E9"/>
<ellipse cx="1252.5" cy="144.5" rx="2.275" ry="6.5" fill="#3873E9"/>
<ellipse cx="1252.5" cy="144.5" rx="2.275" ry="6.5" transform="rotate(-90 1252.5 144.5)" fill="#3873E9"/>
<ellipse cx="1283.5" cy="37.5" rx="2.275" ry="6.5" fill="#3873E9"/>
<ellipse cx="1283.5" cy="37.5" rx="2.275" ry="6.5" transform="rotate(-90 1283.5 37.5)" fill="#3873E9"/>
<ellipse cx="754" cy="202" rx="3.5" ry="10" fill="#3873E9"/>
<ellipse cx="754" cy="202" rx="3.5" ry="10" transform="rotate(-90 754 202)" fill="#3873E9"/>
<ellipse cx="751.5" cy="40.5" rx="1.925" ry="5.5" fill="#3873E9"/>
<ellipse cx="751.5" cy="40.5" rx="1.925" ry="5.5" transform="rotate(-90 751.5 40.5)" fill="#3873E9"/>
<ellipse cx="920.5" cy="15.5" rx="3.675" ry="10.5" fill="#3873E9"/>
<ellipse cx="920.5" cy="15.5" rx="3.675" ry="10.5" transform="rotate(-90 920.5 15.5)" fill="#3873E9"/>
<ellipse cx="414" cy="112" rx="2.1" ry="6" fill="#3873E9"/>
<ellipse cx="414" cy="112" rx="2.1" ry="6" transform="rotate(-90 414 112)" fill="#3873E9"/>
<ellipse cx="98.9999" cy="51" rx="3.15" ry="9" fill="#3873E9"/>
<ellipse cx="99" cy="51" rx="3.15" ry="9" transform="rotate(-90 99 51)" fill="#3873E9"/>
<ellipse cx="101" cy="192" rx="1.75" ry="5" fill="#3873E9"/>
<ellipse cx="101" cy="192" rx="1.75" ry="5" transform="rotate(-90 101 192)" fill="#3873E9"/>
<ellipse cx="280.5" cy="178.5" rx="2.975" ry="8.5" fill="#3873E9"/>
<ellipse cx="280.5" cy="178.5" rx="2.975" ry="8.5" transform="rotate(-90 280.5 178.5)" fill="#3873E9"/>
<ellipse cx="1410.5" cy="195.5" rx="2.975" ry="8.5" fill="#3873E9"/>
<ellipse cx="1410.5" cy="195.5" rx="2.975" ry="8.5" transform="rotate(-90 1410.5 195.5)" fill="#3873E9"/>
</g>
</svg>
