<svg width="46" height="39" viewBox="0 0 46 39" fill="none" xmlns="http://www.w3.org/2000/svg">
<mask id="path-1-inside-1_88_84" fill="white">
<path fill-rule="evenodd" clip-rule="evenodd" d="M25.0564 14.3586C24.6786 15.1155 24.2028 15.8146 23.6458 16.4392H25.4825C25.2736 15.7718 25.1292 15.0759 25.0564 14.3586ZM25.9689 8.85569C25.354 4.21524 21.3949 0.635129 16.6026 0.635129C11.384 0.635129 7.15347 4.88057 7.15347 10.1176C7.15347 12.5986 8.10293 14.857 9.65711 16.547C9.4157 16.6865 9.25325 16.9474 9.25325 17.2462V22.0955C9.25325 22.7173 8.57967 23.1055 8.04166 22.7938L1.2116 18.8366C0.673588 18.5249 7.99319e-06 18.9131 7.99752e-06 19.5348L8.10257e-06 34.6242C8.1069e-06 35.246 0.673588 35.6342 1.2116 35.3225L8.04166 31.3652C8.57967 31.0535 9.25325 31.4417 9.25325 32.0635V37.7579C9.25325 38.2036 9.61457 38.5649 10.0603 38.5649H37.8436C38.2893 38.5649 38.6506 38.2036 38.6506 37.7579V23.3321C42.9102 21.9895 46 17.996 46 13.2784C46 7.45946 41.2994 2.74231 35.5009 2.74231C31.2764 2.74231 27.6347 5.24614 25.9689 8.85569Z"/>
</mask>
<path d="M23.6458 16.4392L22.4412 15.3649L20.0435 18.0532H23.6458V16.4392ZM25.0564 14.3586L26.6622 14.1956L26.0998 8.65398L23.6122 13.6378L25.0564 14.3586ZM25.4825 16.4392V18.0532H27.6789L27.0229 15.9571L25.4825 16.4392ZM25.9689 8.85569L24.3688 9.06771L25.1005 14.5893L27.4344 9.53201L25.9689 8.85569ZM9.65711 16.547L10.4646 17.9445L12.2085 16.9369L10.8451 15.4544L9.65711 16.547ZM8.04166 22.7938L8.85081 21.3972L8.85081 21.3972L8.04166 22.7938ZM1.2116 18.8366L0.40245 20.2331L0.402452 20.2331L1.2116 18.8366ZM7.99752e-06 19.5348H1.61404H7.99752e-06ZM8.10257e-06 34.6242H-1.61403H8.10257e-06ZM1.2116 35.3225L2.02074 36.719H2.02075L1.2116 35.3225ZM8.04166 31.3652L7.23251 29.9687L7.23251 29.9687L8.04166 31.3652ZM38.6506 23.3321L38.1654 21.7927L37.0366 22.1485V23.3321H38.6506ZM24.8503 17.5135C25.5017 16.7832 26.0583 15.9654 26.5005 15.0794L23.6122 13.6378C23.2989 14.2656 22.904 14.846 22.4412 15.3649L24.8503 17.5135ZM25.4825 14.8252H23.6458V18.0532H25.4825V14.8252ZM27.0229 15.9571C26.8462 15.3927 26.7239 14.8036 26.6622 14.1956L23.4506 14.5215C23.5345 15.3481 23.7011 16.151 23.9422 16.9213L27.0229 15.9571ZM27.5689 8.64367C26.8497 3.21575 22.2194 -0.978906 16.6026 -0.978906V2.24916C20.5704 2.24916 23.8583 5.21472 24.3688 9.06771L27.5689 8.64367ZM16.6026 -0.978906C10.4873 -0.978906 5.53944 3.99452 5.53944 10.1176H8.76751C8.76751 5.76662 12.2808 2.24916 16.6026 2.24916V-0.978906ZM5.53944 10.1176C5.53944 13.0183 6.65125 15.6629 8.46909 17.6395L10.8451 15.4544C9.55462 14.0511 8.76751 12.1789 8.76751 10.1176H5.53944ZM8.84962 15.1494C8.12961 15.5655 7.63922 16.3476 7.63922 17.2462H10.8673C10.8673 17.5471 10.7018 17.8074 10.4646 17.9445L8.84962 15.1494ZM7.63922 17.2462V22.0955H10.8673V17.2462H7.63922ZM7.63922 22.0955C7.63922 21.4737 8.31279 21.0855 8.85081 21.3972L7.23251 24.1904C8.84655 25.1255 10.8673 23.9609 10.8673 22.0955H7.63922ZM8.85081 21.3972L2.02075 17.44L0.402452 20.2331L7.23251 24.1904L8.85081 21.3972ZM2.02075 17.44C0.40672 16.5049 -1.61403 17.6695 -1.61403 19.5348H1.61404C1.61404 20.1566 0.940457 20.5448 0.40245 20.2331L2.02075 17.44ZM-1.61403 19.5348L-1.61403 34.6242H1.61404L1.61404 19.5348H-1.61403ZM-1.61403 34.6242C-1.61403 36.4896 0.406718 37.6542 2.02074 36.719L0.402453 33.9259C0.940459 33.6142 1.61404 34.0024 1.61404 34.6242H-1.61403ZM2.02075 36.719L8.85081 32.7618L7.23251 29.9687L0.402451 33.9259L2.02075 36.719ZM8.85081 32.7618C8.3128 33.0735 7.63922 32.6853 7.63922 32.0635H10.8673C10.8673 30.1982 8.84655 29.0335 7.23251 29.9687L8.85081 32.7618ZM7.63922 32.0635V37.7579H10.8673V32.0635H7.63922ZM7.63922 37.7579C7.63922 39.095 8.72316 40.179 10.0603 40.179V36.9509C10.506 36.9509 10.8673 37.3122 10.8673 37.7579H7.63922ZM10.0603 40.179H37.8436V36.9509H10.0603V40.179ZM37.8436 40.179C39.1807 40.179 40.2647 39.095 40.2647 37.7579H37.0366C37.0366 37.3122 37.3979 36.9509 37.8436 36.9509V40.179ZM40.2647 37.7579V23.3321H37.0366V37.7579H40.2647ZM44.386 13.2784C44.386 17.2746 41.7694 20.6568 38.1654 21.7927L39.1358 24.8715C44.0511 23.3223 47.614 18.7175 47.614 13.2784H44.386ZM35.5009 4.35634C40.4027 4.35634 44.386 8.34551 44.386 13.2784H47.614C47.614 6.57341 42.1962 1.12827 35.5009 1.12827V4.35634ZM27.4344 9.53201C28.8472 6.4706 31.9315 4.35634 35.5009 4.35634V1.12827C30.6214 1.12827 26.4221 4.02168 24.5034 8.17936L27.4344 9.53201Z" fill="#3873E9" mask="url(#path-1-inside-1_88_84)"/>
<ellipse cx="23.3213" cy="27.2667" rx="1.97025" ry="5.64912" fill="#3873E9"/>
<ellipse cx="23.3213" cy="27.2667" rx="1.97719" ry="5.62929" transform="rotate(-90 23.3213 27.2667)" fill="#3873E9"/>
</svg>
