<svg width="58" height="47" viewBox="0 0 58 47" fill="none" xmlns="http://www.w3.org/2000/svg">
<mask id="path-1-inside-1_88_83" fill="white">
<path fill-rule="evenodd" clip-rule="evenodd" d="M31.1575 17.0051C30.6877 17.9431 30.0961 18.8094 29.4034 19.5834H31.6874C31.4277 18.7564 31.248 17.8939 31.1575 17.0051ZM32.2922 10.1864C31.5276 4.43626 26.6045 0 20.6453 0C14.156 0 8.8953 5.26065 8.8953 11.75C8.8953 14.824 10.0757 17.6222 12.008 19.7162C11.7082 19.8889 11.5064 20.2125 11.5064 20.5834V26.5953C11.5064 27.3651 10.673 27.8462 10.0064 27.4613L1.5 22.5502C0.833333 22.1653 0 22.6464 0 23.4162V42.12C0 42.8898 0.833335 43.3709 1.5 42.986L10.0064 38.0748C10.673 37.6899 11.5064 38.171 11.5064 38.9408V46C11.5064 46.5523 11.9541 47 12.5064 47H47.0619C47.6142 47 48.0619 46.5523 48.0619 46V28.1246C53.3587 26.461 57.2008 21.5125 57.2008 15.6667C57.2008 8.45631 51.3557 2.61114 44.1453 2.61114C38.8921 2.61114 34.3636 5.71372 32.2922 10.1864Z"/>
</mask>
<path fill-rule="evenodd" clip-rule="evenodd" d="M31.1575 17.0051C30.6877 17.9431 30.0961 18.8094 29.4034 19.5834H31.6874C31.4277 18.7564 31.248 17.8939 31.1575 17.0051ZM32.2922 10.1864C31.5276 4.43626 26.6045 0 20.6453 0C14.156 0 8.8953 5.26065 8.8953 11.75C8.8953 14.824 10.0757 17.6222 12.008 19.7162C11.7082 19.8889 11.5064 20.2125 11.5064 20.5834V26.5953C11.5064 27.3651 10.673 27.8462 10.0064 27.4613L1.5 22.5502C0.833333 22.1653 0 22.6464 0 23.4162V42.12C0 42.8898 0.833335 43.3709 1.5 42.986L10.0064 38.0748C10.673 37.6899 11.5064 38.171 11.5064 38.9408V46C11.5064 46.5523 11.9541 47 12.5064 47H47.0619C47.6142 47 48.0619 46.5523 48.0619 46V28.1246C53.3587 26.461 57.2008 21.5125 57.2008 15.6667C57.2008 8.45631 51.3557 2.61114 44.1453 2.61114C38.8921 2.61114 34.3636 5.71372 32.2922 10.1864Z" fill="white"/>
<path d="M29.4034 19.5834L27.9131 18.2495L24.9292 21.5834H29.4034V19.5834ZM31.1575 17.0051L33.1472 16.8025L32.4502 9.95839L29.3693 16.1095L31.1575 17.0051ZM31.6874 19.5834V21.5834H34.4119L33.5955 18.9841L31.6874 19.5834ZM32.2922 10.1864L30.3096 10.45L31.2163 17.2687L34.107 11.0269L32.2922 10.1864ZM12.008 19.7162L13.0062 21.4493L15.1756 20.1997L13.4778 18.3599L12.008 19.7162ZM10.0064 27.4613L9.00637 29.1934L9.00637 29.1934L10.0064 27.4613ZM1.5 22.5502L2.5 20.8181L2.5 20.8181L1.5 22.5502ZM1.5 42.986L2.5 44.718H2.5L1.5 42.986ZM10.0064 38.0748L9.00637 36.3428H9.00637L10.0064 38.0748ZM48.0619 28.1246L47.4626 26.2165L46.0619 26.6564V28.1246H48.0619ZM30.8936 20.9172C31.7035 20.0124 32.3957 18.999 32.9457 17.9008L29.3693 16.1095C28.9797 16.8872 28.4887 17.6064 27.9131 18.2495L30.8936 20.9172ZM31.6874 17.5834H29.4034V21.5834H31.6874V17.5834ZM33.5955 18.9841C33.376 18.285 33.2239 17.5554 33.1472 16.8025L29.1678 17.2078C29.2722 18.2325 29.4794 19.2278 29.7793 20.1826L33.5955 18.9841ZM34.2747 9.92281C33.3798 3.19192 27.6205 -2 20.6453 -2V2C25.5886 2 29.6755 5.6806 30.3096 10.45L34.2747 9.92281ZM20.6453 -2C13.0514 -2 6.8953 4.15608 6.8953 11.75H10.8953C10.8953 6.36522 15.2605 2 20.6453 2V-2ZM6.8953 11.75C6.8953 15.3461 8.27844 18.6237 10.5381 21.0725L13.4778 18.3599C11.873 16.6207 10.8953 14.3018 10.8953 11.75H6.8953ZM11.0097 17.9831C10.1156 18.4982 9.50637 19.4684 9.50637 20.5834H13.5064C13.5064 20.9567 13.3008 21.2796 13.0062 21.4493L11.0097 17.9831ZM9.50637 20.5834V26.5953H13.5064V20.5834H9.50637ZM9.50637 26.5953C9.50637 25.8255 10.3397 25.3444 11.0064 25.7293L9.00637 29.1934C11.0064 30.3481 13.5064 28.9047 13.5064 26.5953H9.50637ZM11.0064 25.7293L2.5 20.8181L0.5 24.2822L9.00637 29.1934L11.0064 25.7293ZM2.5 20.8181C0.5 19.6634 -2 21.1068 -2 23.4162H2C2 24.186 1.16667 24.6671 0.500002 24.2822L2.5 20.8181ZM-2 23.4162V42.12H2V23.4162H-2ZM-2 42.12C-2 44.4294 0.500007 45.8727 2.5 44.718L0.500003 41.2539C1.16666 40.869 2 41.3501 2 42.12H-2ZM2.5 44.718L11.0064 39.8069L9.00637 36.3428L0.500001 41.2539L2.5 44.718ZM11.0064 39.8069C10.3397 40.1918 9.50637 39.7107 9.50637 38.9408H13.5064C13.5064 36.6314 11.0064 35.1881 9.00637 36.3428L11.0064 39.8069ZM9.50637 38.9408V46H13.5064V38.9408H9.50637ZM9.50637 46C9.50637 47.6569 10.8495 49 12.5064 49V45C13.0587 45 13.5064 45.4477 13.5064 46H9.50637ZM12.5064 49H47.0619V45H12.5064V49ZM47.0619 49C48.7188 49 50.0619 47.6569 50.0619 46H46.0619C46.0619 45.4477 46.5096 45 47.0619 45V49ZM50.0619 46V28.1246H46.0619V46H50.0619ZM55.2008 15.6667C55.2008 20.614 51.9498 24.8071 47.4626 26.2165L48.6612 30.0327C54.7676 28.1148 59.2008 22.4111 59.2008 15.6667H55.2008ZM44.1453 4.61114C50.2511 4.61114 55.2008 9.56088 55.2008 15.6667H59.2008C59.2008 7.35174 52.4602 0.611136 44.1453 0.611136V4.61114ZM34.107 11.0269C35.8632 7.23487 39.6999 4.61114 44.1453 4.61114V0.611136C38.0843 0.611136 32.864 4.19256 30.4774 9.34594L34.107 11.0269Z" fill="#3873E9" mask="url(#path-1-inside-1_88_83)"/>
<ellipse cx="28.9999" cy="33" rx="2.45" ry="7" fill="#3873E9"/>
<ellipse cx="29" cy="33.0001" rx="2.45" ry="7" transform="rotate(-90 29 33.0001)" fill="#3873E9"/>
</svg>
