<svg width="37" height="41" viewBox="0 0 37 41" fill="none" xmlns="http://www.w3.org/2000/svg">
<mask id="path-1-inside-1_84_29" fill="white">
<path fill-rule="evenodd" clip-rule="evenodd" d="M9.86326 1.42898C10.4374 1.27203 11.0418 1.18823 11.6658 1.18823H27.7155C31.4819 1.18823 34.5352 4.2415 34.5352 8.00791V33.5803C34.5352 35.7727 33.5007 37.7234 31.8932 38.971C34.7849 38.1806 36.9103 35.5345 36.9103 32.3921V6.81967C36.9103 3.05327 33.8571 0 30.0907 0H14.0409C12.4669 0 11.0174 0.533264 9.86326 1.42898Z"/>
</mask>
<path fill-rule="evenodd" clip-rule="evenodd" d="M9.86326 1.42898C10.4374 1.27203 11.0418 1.18823 11.6658 1.18823H27.7155C31.4819 1.18823 34.5352 4.2415 34.5352 8.00791V33.5803C34.5352 35.7727 33.5007 37.7234 31.8932 38.971C34.7849 38.1806 36.9103 35.5345 36.9103 32.3921V6.81967C36.9103 3.05327 33.8571 0 30.0907 0H14.0409C12.4669 0 11.0174 0.533264 9.86326 1.42898Z" fill="white"/>
<path d="M9.86326 1.42898L9.02701 0.351484L10.2229 2.74465L9.86326 1.42898ZM31.8932 38.971L31.0569 37.8935L32.2528 40.2867L31.8932 38.971ZM10.2229 2.74465C10.681 2.61943 11.1645 2.55217 11.6658 2.55217V-0.175702C10.9192 -0.175702 10.1939 -0.075374 9.50362 0.113319L10.2229 2.74465ZM11.6658 2.55217H27.7155V-0.175702H11.6658V2.55217ZM27.7155 2.55217C30.7287 2.55217 33.1713 4.99478 33.1713 8.00791H35.8991C35.8991 3.48822 32.2352 -0.175702 27.7155 -0.175702V2.55217ZM33.1713 8.00791V33.5803H35.8991V8.00791H33.1713ZM33.1713 33.5803C33.1713 35.3335 32.3459 36.8932 31.0569 37.8935L32.7294 40.0485C34.6555 38.5537 35.8991 36.2119 35.8991 33.5803H33.1713ZM35.5464 32.3921C35.5464 34.9041 33.8475 37.0228 31.5336 37.6553L32.2528 40.2867C35.7223 39.3383 38.2743 36.165 38.2743 32.3921H35.5464ZM35.5464 6.81967V32.3921H38.2743V6.81967H35.5464ZM30.0907 1.36393C33.1038 1.36393 35.5464 3.80655 35.5464 6.81967H38.2743C38.2743 2.29999 34.6103 -1.36393 30.0907 -1.36393V1.36393ZM14.0409 1.36393H30.0907V-1.36393H14.0409V1.36393ZM10.6995 2.50648C11.6229 1.78986 12.7802 1.36393 14.0409 1.36393V-1.36393C12.1535 -1.36393 10.4119 -0.723331 9.02701 0.351484L10.6995 2.50648Z" fill="#3873E9" mask="url(#path-1-inside-1_84_29)"/>
<rect x="5.5281" y="1.8702" width="28.3252" height="37.8478" rx="6.13771" stroke="#3873E9" stroke-width="1.36393"/>
<ellipse cx="18.5031" cy="23.1708" rx="2.07824" ry="5.94118" fill="#3873E9"/>
<ellipse cx="18.5031" cy="23.1707" rx="2.07941" ry="5.93782" transform="rotate(-90 18.5031 23.1707)" fill="#3873E9"/>
<ellipse cx="24.441" cy="16.6354" rx="1.24694" ry="3.56471" fill="#3873E9"/>
<ellipse cx="24.4409" cy="16.6354" rx="1.24765" ry="3.56269" transform="rotate(-90 24.4409 16.6354)" fill="#3873E9"/>
<path fill-rule="evenodd" clip-rule="evenodd" d="M4.32006 8.99649C4.32006 8.59444 3.97517 8.2761 3.57795 8.33822C1.88274 8.60333 0.689682 9.23586 0.689682 9.97399C0.689682 10.9509 2.77946 11.7428 5.35733 11.7428C6.80631 11.7428 8.10108 11.4926 8.95721 11.1C9.77693 10.7241 9.29388 9.97405 8.39208 9.97405C8.20379 9.97405 8.01767 10.0088 7.83709 10.0621C7.1992 10.2504 6.33894 10.3789 5.35733 10.3789C4.82837 10.3789 4.33465 10.3416 3.89197 10.2777C3.45076 10.2141 3.39352 9.74532 3.83431 9.67877C4.07623 9.64224 4.32006 9.43206 4.32006 9.18739V8.99649Z" fill="#3873E9"/>
<path fill-rule="evenodd" clip-rule="evenodd" d="M4.32006 16.1259C4.32006 15.7238 3.97517 15.4055 3.57795 15.4676C1.88274 15.7327 0.689682 16.3653 0.689682 17.1034C0.689682 18.0803 2.77946 18.8722 5.35733 18.8722C7.93521 18.8722 10.025 18.0803 10.025 17.1034C10.025 17.1034 10.025 17.1033 10.0249 17.1033H8.10766C8.10764 17.1033 8.10764 17.1034 8.10766 17.1034C8.10767 17.1034 8.10767 17.1034 8.10766 17.1034C7.45342 17.3386 6.48553 17.5083 5.35733 17.5083C4.82837 17.5083 4.33465 17.471 3.89197 17.4071C3.45076 17.3435 3.39352 16.8747 3.83431 16.8082C4.07623 16.7716 4.32006 16.5615 4.32006 16.3168V16.1259Z" fill="#3873E9"/>
<path fill-rule="evenodd" clip-rule="evenodd" d="M4.32006 23.2554C4.32006 22.8533 3.97517 22.535 3.57795 22.5971C1.88274 22.8622 0.689682 23.4948 0.689682 24.2329C0.689682 25.2098 2.77946 26.0017 5.35733 26.0017C7.93521 26.0017 10.025 25.2098 10.025 24.2329C10.025 24.2329 10.025 24.2329 10.0249 24.2329H8.10766C8.10764 24.2329 8.10764 24.2329 8.10766 24.2329C8.10767 24.2329 8.10767 24.2329 8.10766 24.2329C7.45342 24.4681 6.48553 24.6378 5.35733 24.6378C4.82837 24.6378 4.33465 24.6005 3.89197 24.5366C3.45076 24.473 3.39352 24.0042 3.83431 23.9377C4.07623 23.9011 4.32006 23.691 4.32006 23.4463V23.2554Z" fill="#3873E9"/>
<path fill-rule="evenodd" clip-rule="evenodd" d="M4.32006 30.9789C4.32006 30.5769 3.97517 30.2585 3.57795 30.3206C1.88274 30.5858 0.689682 31.2183 0.689682 31.9564C0.689682 32.9333 2.77946 33.7252 5.35733 33.7252C7.93521 33.7252 10.025 32.9333 10.025 31.9564C10.025 31.9564 10.025 31.9564 10.0249 31.9564H8.10766C8.10764 31.9564 8.10764 31.9564 8.10766 31.9564C8.10767 31.9564 8.10767 31.9564 8.10766 31.9564C7.45342 32.1916 6.48553 32.3613 5.35733 32.3613C4.82837 32.3613 4.33465 32.324 3.89197 32.2601C3.45076 32.1965 3.39352 31.7277 3.83431 31.6612C4.07623 31.6247 4.32006 31.4145 4.32006 31.1698V30.9789Z" fill="#3873E9"/>
</svg>
