<svg width="298" height="259" viewBox="0 0 298 259" fill="none" xmlns="http://www.w3.org/2000/svg">
<circle cx="88" cy="164" r="134" fill="#3873E9" fill-opacity="0.25"/>
<circle cx="103" cy="121" r="74" fill="white"/>
<circle cx="105" cy="114" r="43" fill="#3873E9" fill-opacity="0.25"/>
<ellipse cx="108" cy="97.5" rx="16" ry="15.5" fill="white"/>
<circle cx="126.5" cy="120.5" r="7.5" fill="white"/>
<path fill-rule="evenodd" clip-rule="evenodd" d="M279 209.808C279 206.987 273.844 204.587 266.65 203.7C265.799 196.324 263.367 191 260.5 191C257.633 191 255.201 196.324 254.349 203.7C247.156 204.587 242 206.987 242 209.808C242 212.64 247.192 215.047 254.426 215.926C255.34 222.976 257.715 228 260.5 228C263.285 228 265.659 222.976 266.574 215.926C273.807 215.047 279 212.64 279 209.808Z" fill="#3873E9" fill-opacity="0.25"/>
<path fill-rule="evenodd" clip-rule="evenodd" d="M298 232.658C298 231.21 295.352 229.977 291.658 229.522C291.221 225.734 289.972 223 288.5 223C287.028 223 285.779 225.734 285.342 229.522C281.648 229.977 279 231.21 279 232.658C279 234.112 281.666 235.348 285.381 235.8C285.85 239.42 287.07 242 288.5 242C289.93 242 291.149 239.42 291.619 235.8C295.334 235.348 298 234.112 298 232.658Z" fill="#3873E9" fill-opacity="0.25"/>
<path fill-rule="evenodd" clip-rule="evenodd" d="M42 13.2166C42 11.234 38.377 9.54755 33.3218 8.92408C32.7233 3.7409 31.0145 0 28.9999 0C26.9853 0 25.2765 3.74091 24.678 8.9241C19.6229 9.5476 16 11.234 16 13.2166C16 15.2062 19.6487 16.8976 24.7319 17.5157C25.3742 22.4694 27.0427 26 28.9999 26C30.9571 26 32.6256 22.4694 33.2679 17.5157C38.3512 16.8976 42 15.2062 42 13.2166Z" fill="#3873E9" fill-opacity="0.25"/>
</svg>
