<svg width="29" height="39" viewBox="0 0 29 39" fill="none" xmlns="http://www.w3.org/2000/svg">
<path d="M14.7839 34.184C14.7839 36.5753 14.1055 38.5137 13.2686 38.5137C12.4316 38.5137 11.7532 36.5753 11.7532 34.184C11.7532 31.7928 12.4316 29.8544 13.2686 29.8544C14.1055 29.8544 14.7839 31.7928 14.7839 34.184Z" fill="#3873E9"/>
<path d="M13.2689 32.6688C15.6602 32.6688 17.5986 33.3472 17.5986 34.1841C17.5986 35.0211 15.6602 35.6995 13.2689 35.6995C10.8777 35.6995 8.93927 35.0211 8.93927 34.1841C8.93927 33.3472 10.8777 32.6688 13.2689 32.6688Z" fill="#3873E9"/>
<path d="M12.5932 26.2052C11.8587 26.2052 11.2633 25.6056 11.2871 24.8714C11.343 23.1407 11.483 21.3739 11.7842 20.3947C12.1749 19.1599 12.7283 18.1608 13.4446 17.3975C14.1608 16.6341 15.0236 15.9381 16.0328 15.3095C16.684 14.8829 17.27 14.4058 17.7909 13.8782C18.3118 13.3506 18.7242 12.7444 19.028 12.0597C19.3319 11.3749 19.4838 10.6172 19.4838 9.78649C19.4838 8.7874 19.2559 7.92303 18.8002 7.19336C18.3444 6.46369 17.7366 5.90241 16.977 5.50951C16.2282 5.10539 15.3926 4.90333 14.4701 4.90333C13.6345 4.90333 12.8369 5.08294 12.0772 5.44216C11.3176 5.80138 10.6881 6.36266 10.1889 7.12601C9.87359 7.60109 9.6427 8.16352 9.49624 8.81329C9.34309 9.49277 8.78399 10.0391 8.08747 10.0391H5.74844C4.9998 10.0391 4.39201 9.41496 4.49926 8.67405C4.70711 7.23817 5.16032 5.98688 5.85889 4.92017C6.77047 3.51696 7.97507 2.45614 9.47268 1.7377C10.9811 1.01925 12.6469 0.660034 14.4701 0.660034C16.4669 0.660034 18.2141 1.04732 19.7117 1.82189C21.2093 2.58523 22.3705 3.65728 23.1953 5.03804C24.0309 6.40757 24.4487 8.00722 24.4487 9.837C24.4487 11.0943 24.2588 12.2281 23.879 13.2384C23.4992 14.2375 22.9566 15.1299 22.2512 15.9157C21.5566 16.7015 20.721 17.3975 19.7443 18.0037C18.8219 18.5986 18.0731 19.216 17.4979 19.8559C16.9336 20.4958 16.5212 21.2535 16.2607 22.1291C16.0792 22.7395 15.9601 23.8525 15.8973 24.908C15.8545 25.6273 15.269 26.2052 14.5485 26.2052H12.5932Z" fill="white"/>
<path fill-rule="evenodd" clip-rule="evenodd" d="M14.4699 1.3203C12.7362 1.3203 11.1688 1.66122 9.75713 2.33342C8.37004 2.99902 7.25813 3.97782 6.41223 5.27992L6.41091 5.28196L6.4109 5.28195C5.77194 6.25765 5.3483 7.41505 5.15235 8.76874C5.10984 9.06244 5.35049 9.37903 5.74819 9.37903H8.08722C8.41155 9.37903 8.75168 9.1133 8.852 8.66826C9.01302 7.95385 9.27147 7.31484 9.63737 6.76298C10.1971 5.90765 10.9163 5.2609 11.7947 4.84549C12.6421 4.44479 13.5361 4.24329 14.4699 4.24329C15.4903 4.24329 16.4334 4.46737 17.2851 4.92593C18.1483 5.37347 18.8427 6.01587 19.3598 6.84374C19.8911 7.69428 20.1437 8.68416 20.1437 9.7866C20.1437 10.6994 19.9764 11.5497 19.6312 12.3276C19.2953 13.0844 18.8379 13.7572 18.2604 14.3422C17.7051 14.9046 17.0826 15.411 16.3943 15.8618L16.388 15.866L16.3816 15.87C15.4145 16.4723 14.5979 17.133 13.9257 17.8493C13.2917 18.525 12.7819 19.4301 12.4142 20.5913C12.1434 21.4739 12.0028 23.1525 11.9466 24.8928C11.9353 25.2444 12.2214 25.5451 12.593 25.5451H14.5483C14.9024 25.5451 15.215 25.2566 15.2381 24.8689C15.3006 23.8179 15.4217 22.6336 15.6277 21.941C15.9135 20.9802 16.3704 20.1361 17.0025 19.4194L17.0067 19.4147L17.0067 19.4147C17.63 18.7212 18.4274 18.0674 19.3862 17.449L19.391 17.4459L19.3959 17.4429C20.3232 16.8673 21.1082 16.2119 21.7563 15.4786L21.7596 15.4748L21.7597 15.4748C22.4098 14.7505 22.91 13.9286 23.2613 13.0049C23.6087 12.0803 23.7883 11.0274 23.7883 9.83712C23.7883 8.11124 23.3954 6.63405 22.6315 5.382L22.6283 5.3767L22.6283 5.37669C21.8702 4.10755 20.8038 3.11975 19.4117 2.41016L19.4082 2.40839L19.4082 2.40838C18.0202 1.69047 16.3805 1.3203 14.4699 1.3203ZM9.18856 1.14181C10.7935 0.377395 12.5576 0 14.4699 0C16.5521 0 18.4063 0.404127 20.0131 1.23478C21.6143 2.05134 22.8692 3.20644 23.7602 4.69696C24.6664 6.18337 25.1086 7.90459 25.1086 9.83712C25.1086 11.1609 24.9086 12.3751 24.4967 13.4708L24.4958 13.4731C24.0878 14.5464 23.5034 15.5083 22.7439 16.3549C22.0044 17.1911 21.1204 17.9259 20.0972 18.5616C19.2145 19.1313 18.5165 19.7106 17.9906 20.295C17.4952 20.8576 17.128 21.5281 16.8932 22.3174C16.7361 22.8457 16.6191 23.8873 16.5561 24.9473C16.4935 25.9981 15.6351 26.8654 14.5483 26.8654H12.593C11.4954 26.8654 10.5909 25.967 10.627 24.8502C10.6825 23.1308 10.8219 21.2771 11.153 20.2008L11.1545 20.1957L11.1545 20.1957C11.5681 18.8885 12.165 17.7963 12.9629 16.9459C13.7217 16.1372 14.6283 15.4072 15.677 14.7534C16.2886 14.3521 16.836 13.9057 17.3209 13.4145C17.7852 12.9443 18.1525 12.4047 18.4244 11.792C18.6869 11.2003 18.8234 10.5352 18.8234 9.7866C18.8234 8.89088 18.6203 8.15201 18.24 7.54322C17.8466 6.9134 17.3272 6.43414 16.6735 6.096L16.6683 6.09333L16.6632 6.09058C16.0187 5.74275 15.2923 5.5636 14.4699 5.5636C13.7324 5.5636 13.0311 5.72133 12.3592 6.03907L12.077 5.44228L12.3592 6.03907C11.719 6.34181 11.1796 6.81699 10.7412 7.48744L10.7387 7.4912L10.7387 7.49119C10.4746 7.88907 10.2717 8.37426 10.14 8.95857C9.93399 9.87248 9.15593 10.6993 8.08722 10.6993H5.74819C4.64861 10.6993 3.67368 9.76772 3.84566 8.57959C4.06535 7.06197 4.54792 5.71713 5.30571 4.55963C6.28273 3.05608 7.57951 1.91371 9.18689 1.14261L9.18856 1.14181L9.18856 1.14181Z" fill="#3873E9"/>
<path d="M4.25851 29.4579C4.25851 30.4653 3.97267 31.282 3.62007 31.282C3.26747 31.282 2.98163 30.4653 2.98163 29.4579C2.98163 28.4505 3.26747 27.6338 3.62007 27.6338C3.97267 27.6338 4.25851 28.4505 4.25851 29.4579Z" fill="#3873E9"/>
<path d="M3.62014 28.8194C4.62758 28.8194 5.44426 29.1053 5.44426 29.4579C5.44426 29.8105 4.62758 30.0963 3.62014 30.0963C2.61271 30.0963 1.79602 29.8105 1.79602 29.4579C1.79602 29.1053 2.61271 28.8194 3.62014 28.8194Z" fill="#3873E9"/>
<path d="M3.75299 26.0964C3.21365 26.0964 2.77427 25.6559 2.80281 25.1173C2.83378 24.533 2.89201 23.9822 2.99465 23.6485C3.15925 23.1282 3.39243 22.7073 3.69419 22.3857C3.99594 22.0641 4.35943 21.7709 4.78463 21.506C5.05896 21.3263 5.30585 21.1253 5.52531 20.903C5.74478 20.6807 5.91851 20.4253 6.04653 20.1368C6.17455 19.8484 6.23856 19.5291 6.23856 19.1791C6.23856 18.7582 6.14255 18.3941 5.95052 18.0866C5.75849 17.7792 5.50245 17.5428 5.18241 17.3772C4.86693 17.207 4.51488 17.1218 4.12625 17.1218C3.7742 17.1218 3.43815 17.1975 3.1181 17.3488C2.79805 17.5002 2.53287 17.7367 2.32255 18.0583C2.26764 18.141 2.21881 18.23 2.17605 18.3253C1.94827 18.833 1.52591 19.2856 0.969429 19.2856V19.2856C0.371318 19.2856 -0.124622 18.7817 0.0278516 18.2033C0.132594 17.806 0.289404 17.4479 0.498283 17.1289C0.88234 16.5377 1.38984 16.0908 2.02079 15.7881C2.65632 15.4854 3.35814 15.3341 4.12625 15.3341C4.96752 15.3341 5.70363 15.4973 6.33458 15.8236C6.96553 16.1452 7.45474 16.5969 7.80222 17.1786C8.15427 17.7556 8.3303 18.4295 8.3303 19.2004C8.3303 19.7301 8.25029 20.2078 8.09027 20.6334C7.93024 21.0544 7.70164 21.4304 7.40445 21.7614C7.11183 22.0925 6.75978 22.3857 6.34829 22.6411C5.95966 22.8917 5.64419 23.1519 5.40187 23.4214C5.16412 23.691 4.99038 24.0103 4.88065 24.3792C4.82738 24.5582 4.78688 24.84 4.75827 25.1447C4.70881 25.6715 4.28203 26.0964 3.75299 26.0964V26.0964Z" fill="#3873E9"/>
<path d="M24.4234 36.4649C24.4234 37.4723 24.1375 38.289 23.7849 38.289C23.4323 38.289 23.1465 37.4723 23.1465 36.4649C23.1465 35.4574 23.4323 34.6407 23.7849 34.6407C24.1375 34.6407 24.4234 35.4574 24.4234 36.4649Z" fill="#3873E9"/>
<path d="M23.785 35.8264C24.7924 35.8264 25.6091 36.1123 25.6091 36.4649C25.6091 36.8175 24.7924 37.1033 23.785 37.1033C22.7776 37.1033 21.9609 36.8175 21.9609 36.4649C21.9609 36.1123 22.7776 35.8264 23.785 35.8264Z" fill="#3873E9"/>
<path d="M23.918 33.1031C23.3786 33.1031 22.9392 32.6626 22.9678 32.124C22.9988 31.5397 23.057 30.9889 23.1596 30.6552C23.3242 30.1349 23.5574 29.714 23.8592 29.3924C24.1609 29.0708 24.5244 28.7776 24.9496 28.5127C25.2239 28.333 25.4708 28.132 25.6903 27.9097C25.9098 27.6874 26.0835 27.4321 26.2115 27.1436C26.3395 26.8551 26.4035 26.5358 26.4035 26.1859C26.4035 25.7649 26.3075 25.4008 26.1155 25.0934C25.9235 24.7859 25.6674 24.5495 25.3474 24.3839C25.0319 24.2137 24.6799 24.1285 24.2912 24.1285C23.9392 24.1285 23.6031 24.2042 23.2831 24.3556C22.963 24.5069 22.6978 24.7434 22.4875 25.065C22.4326 25.1477 22.3838 25.2367 22.341 25.332C22.1133 25.8398 21.6909 26.2923 21.1344 26.2923V26.2923C20.5363 26.2923 20.0404 25.7884 20.1928 25.21C20.2976 24.8127 20.4544 24.4546 20.6633 24.1356C21.0473 23.5445 21.5548 23.0975 22.1858 22.7948C22.8213 22.4922 23.5231 22.3408 24.2912 22.3408C25.1325 22.3408 25.8686 22.504 26.4996 22.8303C27.1305 23.1519 27.6197 23.6036 27.9672 24.1853C28.3193 24.7623 28.4953 25.4362 28.4953 26.2071C28.4953 26.7368 28.4153 27.2145 28.2552 27.6402C28.0952 28.0611 27.8666 28.4371 27.5694 28.7681C27.2768 29.0992 26.9248 29.3924 26.5133 29.6478C26.1246 29.8985 25.8092 30.1586 25.5668 30.4282C25.3291 30.6977 25.1554 31.017 25.0456 31.3859C24.9924 31.565 24.9519 31.8467 24.9232 32.1514C24.8738 32.6782 24.447 33.1031 23.918 33.1031V33.1031Z" fill="#3873E9"/>
</svg>
