<svg width="457" height="112" viewBox="0 0 457 112" fill="none" xmlns="http://www.w3.org/2000/svg">
<circle cx="45.5" cy="60.5" r="45.5" fill="#3873E9"/>
<path d="M47.4418 46.9091V76H43.919V50.6023H43.7486L36.6463 55.3182V51.7386L43.919 46.9091H47.4418Z" fill="white"/>
<circle cx="411.5" cy="60.5" r="44" stroke="#3873E9" stroke-width="3"/>
<path d="M412.107 76.3977C410.232 76.3977 408.56 76.0758 407.092 75.4318C405.634 74.7879 404.474 73.893 403.612 72.7472C402.76 71.5919 402.296 70.2519 402.22 68.7273H405.8C405.875 69.6648 406.197 70.4744 406.766 71.1562C407.334 71.8286 408.077 72.3494 408.996 72.7188C409.914 73.0881 410.932 73.2727 412.05 73.2727C413.3 73.2727 414.408 73.0549 415.374 72.6193C416.339 72.1837 417.097 71.5777 417.646 70.8011C418.196 70.0246 418.47 69.125 418.47 68.1023C418.47 67.0322 418.205 66.09 417.675 65.2756C417.144 64.4517 416.368 63.8078 415.345 63.3438C414.322 62.8797 413.072 62.6477 411.595 62.6477H409.266V59.5227H411.595C412.75 59.5227 413.764 59.3144 414.635 58.8977C415.516 58.4811 416.202 57.8939 416.695 57.1364C417.196 56.3788 417.447 55.4886 417.447 54.4659C417.447 53.4811 417.23 52.6241 416.794 51.8949C416.358 51.1657 415.743 50.5975 414.947 50.1903C414.161 49.7831 413.233 49.5795 412.163 49.5795C411.16 49.5795 410.213 49.7642 409.322 50.1335C408.442 50.4934 407.722 51.0189 407.163 51.7102C406.605 52.392 406.302 53.2159 406.254 54.1818H402.845C402.902 52.6572 403.361 51.322 404.223 50.1761C405.085 49.0208 406.212 48.1212 407.604 47.4773C409.005 46.8333 410.544 46.5114 412.22 46.5114C414.019 46.5114 415.563 46.8759 416.851 47.6051C418.139 48.3248 419.128 49.2765 419.82 50.4602C420.511 51.6439 420.857 52.9223 420.857 54.2955C420.857 55.9337 420.426 57.3305 419.564 58.4858C418.712 59.6411 417.552 60.4413 416.084 60.8864V61.1136C417.921 61.4167 419.356 62.1979 420.388 63.4574C421.42 64.7074 421.936 66.2557 421.936 68.1023C421.936 69.6837 421.505 71.1042 420.643 72.3636C419.791 73.6136 418.626 74.5985 417.149 75.3182C415.672 76.0379 413.991 76.3977 412.107 76.3977Z" fill="#3873E9"/>
<circle cx="228.5" cy="60.5" r="45.5" fill="#3873E9"/>
<path d="M219.402 76V73.4432L229.004 62.9318C230.131 61.7008 231.059 60.6307 231.788 59.7216C232.518 58.803 233.057 57.9413 233.408 57.1364C233.768 56.322 233.947 55.4697 233.947 54.5795C233.947 53.5568 233.701 52.6714 233.209 51.9233C232.726 51.1752 232.063 50.5975 231.22 50.1903C230.377 49.7831 229.43 49.5795 228.379 49.5795C227.262 49.5795 226.286 49.8116 225.453 50.2756C224.629 50.7301 223.99 51.3693 223.536 52.1932C223.09 53.017 222.868 53.983 222.868 55.0909H219.516C219.516 53.3864 219.909 51.8902 220.695 50.6023C221.481 49.3144 222.551 48.3106 223.905 47.5909C225.268 46.8712 226.798 46.5114 228.493 46.5114C230.197 46.5114 231.708 46.8712 233.024 47.5909C234.34 48.3106 235.373 49.2812 236.121 50.5028C236.869 51.7244 237.243 53.0833 237.243 54.5795C237.243 55.6496 237.049 56.696 236.661 57.7188C236.282 58.732 235.619 59.8636 234.672 61.1136C233.734 62.3542 232.432 63.8693 230.766 65.6591L224.232 72.6477V72.875H237.754V76H219.402Z" fill="white"/>
<ellipse cx="275" cy="102" rx="3.5" ry="10" fill="#3873E9"/>
<ellipse cx="275" cy="102" rx="3.5" ry="10" transform="rotate(-90 275 102)" fill="#3873E9"/>
<ellipse cx="172" cy="36" rx="2.1" ry="6" fill="#3873E9"/>
<ellipse cx="172" cy="36.0001" rx="2.1" ry="6" transform="rotate(-90 172 36.0001)" fill="#3873E9"/>
<ellipse cx="183" cy="15" rx="5.25" ry="15" fill="#3873E9"/>
<ellipse cx="183" cy="15" rx="5.25" ry="15" transform="rotate(-90 183 15)" fill="#3873E9"/>
<path d="M88.5 61.5H183.5" stroke="#3873E9" stroke-width="3" stroke-linecap="round"/>
<path d="M268 62H296" stroke="#3873E9" stroke-width="3" stroke-linecap="round"/>
<path d="M302 62H311" stroke="#3873E9" stroke-width="3" stroke-linecap="round"/>
<path d="M316 62H317" stroke="#3873E9" stroke-width="3" stroke-linecap="round"/>
</svg>
