<svg width="28" height="42" viewBox="0 0 28 42" fill="none" xmlns="http://www.w3.org/2000/svg">
<path d="M10.5423 38.2988C11.852 39.8844 15.3553 42.1041 18.8914 38.2988" stroke="#3873E9" stroke-width="1.6" stroke-linecap="round"/>
<path d="M26.6345 13.662C26.6345 17.5272 25.1723 20.4226 23.6521 22.841C23.3554 23.3129 23.0432 23.786 22.7378 24.2488C22.2871 24.9319 21.8513 25.5923 21.5028 26.1923C20.906 27.2199 20.4242 28.2893 20.4242 29.3955C20.4242 29.5373 20.3636 29.7168 20.0992 29.9419C19.8235 30.1766 19.3809 30.408 18.7711 30.6076C17.5577 31.0047 15.8887 31.2099 14.1832 31.2025C12.4778 31.1951 10.8155 30.9755 9.61599 30.5748C9.01254 30.3732 8.58021 30.1434 8.31635 29.9156C8.06402 29.6977 8.02271 29.5376 8.02679 29.4242C8.06624 28.3271 7.58409 27.273 6.98833 26.271C6.64418 25.6922 6.20821 25.0492 5.75557 24.3817C5.44173 23.9188 5.11987 23.4441 4.81504 22.9708C3.27009 20.5719 1.76552 17.6474 1.76552 13.662C1.76552 5.68411 7.1852 0.91616 13.6971 0.801827C20.233 0.687075 26.6345 5.97302 26.6345 13.662Z" stroke="#3873E9" stroke-width="1.6"/>
<path d="M8.70061 35.4938C10.8841 36.5982 16.2493 38.1445 20.2419 35.4938" stroke="#3873E9" stroke-width="1.6" stroke-linecap="round"/>
<path d="M8.70061 32.8104C10.8841 33.9149 16.2493 35.4611 20.2419 32.8104" stroke="#3873E9" stroke-width="1.6" stroke-linecap="round"/>
<ellipse cx="16.4663" cy="11.6339" rx="1.82892" ry="5.19078" fill="#3873E9"/>
<ellipse cx="16.4664" cy="11.7205" rx="1.81677" ry="5.22548" transform="rotate(-90 16.4664 11.7205)" fill="#3873E9"/>
<ellipse cx="16.4664" cy="11.7205" rx="1.81677" ry="5.22548" transform="rotate(-90 16.4664 11.7205)" fill="#3873E9"/>
<ellipse cx="16.1178" cy="23.0536" rx="0.975173" ry="2.76842" fill="#3873E9"/>
<ellipse cx="16.118" cy="23.0535" rx="0.968946" ry="2.78692" transform="rotate(-90 16.118 23.0535)" fill="#3873E9"/>
<ellipse cx="10.1954" cy="19.2471" rx="1.34086" ry="3.80657" fill="#3873E9"/>
<ellipse cx="10.1958" cy="19.247" rx="1.3323" ry="3.83202" transform="rotate(-90 10.1958 19.247)" fill="#3873E9"/>
</svg>
